<svg width="43" height="43" viewBox="0 0 43 43" fill="none" xmlns="http://www.w3.org/2000/svg">
<rect x="0.0012207" y="0.5" width="42" height="42" rx="21" fill="white"/>
<path d="M27.5895 21.9006L22.527 26.9631C22.4195 27.067 22.2758 27.1252 22.1262 27.1252C21.9767 27.1252 21.833 27.067 21.7254 26.9631C21.6198 26.8564 21.5606 26.7124 21.5606 26.5623C21.5606 26.4122 21.6198 26.2682 21.7254 26.1615L25.8317 22.0623H14.8137C14.6645 22.0623 14.5215 22.003 14.416 21.8975C14.3105 21.7921 14.2512 21.649 14.2512 21.4998C14.2512 21.3506 14.3105 21.2075 14.416 21.102C14.5215 20.9966 14.6645 20.9373 14.8137 20.9373H25.8317L21.7254 16.8381C21.6357 16.7288 21.5899 16.59 21.5968 16.4488C21.6038 16.3076 21.663 16.174 21.763 16.074C21.8629 15.9741 21.9965 15.9148 22.1377 15.9079C22.279 15.901 22.4177 15.9468 22.527 16.0365L27.5895 21.099C27.6951 21.2057 27.7544 21.3497 27.7544 21.4998C27.7544 21.6499 27.6951 21.7939 27.5895 21.9006Z" fill="black"/>
</svg>
